<svg width="107" height="30" viewBox="0 0 107 30" fill="none" xmlns="http://www.w3.org/2000/svg">
<path d="M14.5825 27.788C15.9381 29.4712 18.6241 29.0414 19.379 27.0206L27.6371 4.91413C28.4687 2.68803 26.2822 0.521265 24.043 1.35251L1.81478 9.60435C-0.218153 10.359 -0.644312 13.0285 1.05383 14.3709L5.35903 17.7741C6.02828 18.3032 6.97442 18.3109 7.65237 17.7929L18.0723 9.83131C18.3706 9.60338 18.7929 9.63062 19.059 9.89496C19.3251 10.1593 19.3525 10.5787 19.1231 10.875L11.1101 21.2221C10.5875 21.8969 10.5965 22.839 11.1319 23.5038L14.5825 27.788Z" fill="#A64EFF"/>
<path d="M44.4925 22L41.5767 16.7076H40.7579V22H37.3428V7.98015H43.0745C44.1796 7.98015 45.1183 8.1732 45.8905 8.55932C46.676 8.94543 47.2619 9.47799 47.648 10.157C48.0341 10.8227 48.2271 11.5683 48.2271 12.3938C48.2271 13.3258 47.9609 14.1579 47.4283 14.8902C46.909 15.6225 46.1368 16.1418 45.1116 16.448L48.347 22H44.4925ZM40.7579 14.2911H42.8748C43.5006 14.2911 43.9666 14.138 44.2728 13.8317C44.5924 13.5255 44.7521 13.0928 44.7521 12.5336C44.7521 12.001 44.5924 11.5816 44.2728 11.2754C43.9666 10.9692 43.5006 10.8161 42.8748 10.8161H40.7579V14.2911ZM55.4436 22.1598C54.3519 22.1598 53.3666 21.9268 52.4879 21.4608C51.6225 20.9948 50.9368 20.3291 50.4308 19.4636C49.9382 18.5982 49.6919 17.5863 49.6919 16.428C49.6919 15.283 49.9449 14.2778 50.4508 13.4123C50.9568 12.5336 51.6491 11.8612 52.5278 11.3952C53.4066 10.9292 54.3918 10.6962 55.4836 10.6962C56.5753 10.6962 57.5606 10.9292 58.4393 11.3952C59.3181 11.8612 60.0104 12.5336 60.5164 13.4123C61.0223 14.2778 61.2753 15.283 61.2753 16.428C61.2753 17.573 61.0156 18.5849 60.4964 19.4636C59.9904 20.3291 59.2914 20.9948 58.3994 21.4608C57.5207 21.9268 56.5354 22.1598 55.4436 22.1598ZM55.4436 19.204C56.096 19.204 56.6486 18.9644 57.1013 18.4851C57.5673 18.0057 57.8003 17.3201 57.8003 16.428C57.8003 15.536 57.5739 14.8503 57.1212 14.371C56.6819 13.8917 56.136 13.652 55.4836 13.652C54.8179 13.652 54.2653 13.8917 53.826 14.371C53.3866 14.837 53.1669 15.5226 53.1669 16.428C53.1669 17.3201 53.3799 18.0057 53.806 18.4851C54.2454 18.9644 54.7912 19.204 55.4436 19.204ZM66.5021 7.22124V22H63.087V7.22124H66.5021ZM72.3921 7.22124V22H68.977V7.22124H72.3921ZM76.5845 9.69768C75.9854 9.69768 75.4927 9.52459 75.1066 9.17843C74.7338 8.81894 74.5474 8.37957 74.5474 7.86032C74.5474 7.32775 74.7338 6.88838 75.1066 6.54221C75.4927 6.18273 75.9854 6.00299 76.5845 6.00299C77.1703 6.00299 77.6496 6.18273 78.0224 6.54221C78.4086 6.88838 78.6016 7.32775 78.6016 7.86032C78.6016 8.37957 78.4086 8.81894 78.0224 9.17843C77.6496 9.52459 77.1703 9.69768 76.5845 9.69768ZM78.2821 10.856V22H74.867V10.856H78.2821ZM87.5472 10.7362C88.852 10.7362 89.8905 11.1622 90.6627 12.0144C91.4483 12.8531 91.841 14.0115 91.841 15.4894V22H88.4459V15.9487C88.4459 15.2031 88.2528 14.6239 87.8667 14.2112C87.4806 13.7985 86.9614 13.5921 86.309 13.5921C85.6566 13.5921 85.1373 13.7985 84.7512 14.2112C84.3651 14.6239 84.172 15.2031 84.172 15.9487V22H80.757V10.856H84.172V12.3339C84.5182 11.8413 84.9842 11.4552 85.57 11.1756C86.1559 10.8826 86.8149 10.7362 87.5472 10.7362ZM98.4481 10.6962C99.2336 10.6962 99.9193 10.856 100.505 11.1756C101.104 11.4951 101.564 11.9145 101.883 12.4337V10.856H105.298V21.98C105.298 23.0052 105.092 23.9306 104.679 24.756C104.28 25.5948 103.661 26.2605 102.822 26.7532C101.996 27.2458 100.964 27.4921 99.7263 27.4921C98.0753 27.4921 96.7372 27.0993 95.712 26.3138C94.6868 25.5416 94.101 24.4898 93.9545 23.1583H97.3297C97.4362 23.5844 97.6892 23.9172 98.0886 24.1569C98.488 24.4099 98.9807 24.5364 99.5665 24.5364C100.272 24.5364 100.831 24.33 101.244 23.9172C101.67 23.5178 101.883 22.8721 101.883 21.98V20.4023C101.55 20.9215 101.091 21.3476 100.505 21.6805C99.9193 22 99.2336 22.1598 98.4481 22.1598C97.5294 22.1598 96.6973 21.9268 95.9517 21.4608C95.2061 20.9815 94.6136 20.3091 94.1742 19.4437C93.7482 18.5649 93.5351 17.5531 93.5351 16.408C93.5351 15.263 93.7482 14.2578 94.1742 13.3924C94.6136 12.5269 95.2061 11.8612 95.9517 11.3952C96.6973 10.9292 97.5294 10.6962 98.4481 10.6962ZM101.883 16.428C101.883 15.5759 101.643 14.9035 101.164 14.4109C100.698 13.9183 100.126 13.672 99.4467 13.672C98.7676 13.672 98.1885 13.9183 97.7092 14.4109C97.2432 14.8902 97.0102 15.5559 97.0102 16.408C97.0102 17.2601 97.2432 17.9392 97.7092 18.4451C98.1885 18.9377 98.7676 19.184 99.4467 19.184C100.126 19.184 100.698 18.9377 101.164 18.4451C101.643 17.9525 101.883 17.2801 101.883 16.428Z" fill="#4A494F"/>
</svg>
