<svg width="16" height="18" viewBox="0 0 16 18" fill="none" xmlns="http://www.w3.org/2000/svg">
<path fill-rule="evenodd" clip-rule="evenodd" d="M7.64759 0.208947C7.84285 0.0136845 8.15943 0.0136845 8.35469 0.208947L12.1047 3.95895C12.3 4.15421 12.3 4.47079 12.1047 4.66605C11.9094 4.86132 11.5928 4.86132 11.3976 4.66605L8.50098 1.76944V9.9375C8.50098 10.2136 8.27712 10.4375 8.00098 10.4375C7.72483 10.4375 7.50098 10.2136 7.50098 9.9375V1.76977L4.60469 4.66605C4.40943 4.86132 4.09285 4.86132 3.89759 4.66605C3.70232 4.47079 3.70232 4.15421 3.89759 3.95895L7.64759 0.208947ZM1.43848 8.45833C1.19685 8.45833 1.00098 8.65421 1.00098 8.89583V16.5C1.00098 16.7416 1.19685 16.9375 1.43848 16.9375H14.5635C14.8051 16.9375 15.001 16.7416 15.001 16.5V8.89583C15.001 8.65421 14.8051 8.45833 14.5635 8.45833H12.6885C12.4123 8.45833 12.1885 8.23448 12.1885 7.95833C12.1885 7.68219 12.4123 7.45833 12.6885 7.45833H14.5635C15.3574 7.45833 16.001 8.10192 16.001 8.89583V16.5C16.001 17.2939 15.3574 17.9375 14.5635 17.9375H1.43848C0.644567 17.9375 0.000976562 17.2939 0.000976562 16.5V8.89583C0.000976562 8.10192 0.644567 7.45833 1.43848 7.45833H3.31348C3.58962 7.45833 3.81348 7.68219 3.81348 7.95833C3.81348 8.23448 3.58962 8.45833 3.31348 8.45833H1.43848Z" fill="#101010"/>
</svg>
