<svg width="22" height="21" viewBox="0 0 22 21" fill="none" xmlns="http://www.w3.org/2000/svg">
<path fill-rule="evenodd" clip-rule="evenodd" d="M1.29961 10.2448C1.29961 5.34501 5.27177 1.37285 10.1716 1.37285C11.4839 1.37285 12.7281 1.65738 13.8472 2.16755C14.1487 2.305 14.5046 2.17199 14.642 1.87047C14.7795 1.56895 14.6465 1.21309 14.345 1.07565C13.0727 0.495673 11.659 0.172852 10.1716 0.172852C4.60903 0.172852 0.0996094 4.68227 0.0996094 10.2448C0.0996094 15.8074 4.60903 20.3168 10.1716 20.3168C15.7341 20.3168 20.2436 15.8074 20.2436 10.2448C20.2436 9.79656 20.2142 9.35484 20.1573 8.92154C20.1142 8.59299 19.8129 8.36162 19.4843 8.40477C19.1558 8.44791 18.9244 8.74923 18.9676 9.07778C19.0177 9.45941 19.0436 9.84894 19.0436 10.2448C19.0436 15.1446 15.0714 19.1168 10.1716 19.1168C5.27177 19.1168 1.29961 15.1446 1.29961 10.2448ZM13.6939 7.76541C13.6939 7.22592 13.2566 6.78857 12.7171 6.78857C12.1776 6.78857 11.7402 7.22592 11.7402 7.76541C11.7402 8.30489 12.1776 8.74224 12.7171 8.74224C13.2566 8.74224 13.6939 8.30489 13.6939 7.76541ZM7.62722 6.78857C8.16671 6.78857 8.60406 7.22592 8.60406 7.76541C8.60406 8.30489 8.16671 8.74224 7.62722 8.74224C7.08774 8.74224 6.65039 8.30489 6.65039 7.76541C6.65039 7.22592 7.08774 6.78857 7.62722 6.78857ZM7.39812 11.3219C7.34412 10.995 7.0353 10.7737 6.70836 10.8278C6.38142 10.8818 6.16016 11.1906 6.21417 11.5175C6.38511 12.5523 6.84031 13.3479 7.53682 13.8941C8.22237 14.4317 9.08782 14.6858 10.0144 14.7503L10.0352 14.7517H10.0561C11.0512 14.7517 11.941 14.5026 12.6292 13.9383C13.3213 13.3708 13.7416 12.5402 13.8991 11.5104C13.9492 11.1829 13.7242 10.8767 13.3967 10.8266C13.0691 10.7765 12.7629 11.0015 12.7128 11.329C12.5895 12.1355 12.2822 12.6709 11.8683 13.0104C11.4542 13.35 10.8661 13.5483 10.0768 13.5517C9.31611 13.4959 8.71352 13.2919 8.27734 12.9498C7.84813 12.6132 7.52696 12.1018 7.39812 11.3219ZM17.5957 1.09976C17.5957 0.768385 17.8643 0.499756 18.1957 0.499756C18.5271 0.499756 18.7957 0.768385 18.7957 1.09976V3.29976H20.9957C21.3271 3.29976 21.5957 3.56838 21.5957 3.89976C21.5957 4.23113 21.3271 4.49976 20.9957 4.49976H18.7957V6.89976C18.7957 7.23113 18.5271 7.49976 18.1957 7.49976C17.8643 7.49976 17.5957 7.23113 17.5957 6.89976V4.49976H15.1957C14.8643 4.49976 14.5957 4.23113 14.5957 3.89976C14.5957 3.56838 14.8643 3.29976 15.1957 3.29976H17.5957V1.09976Z" fill="#181818"/>
</svg>
