<svg width="19" height="18" viewBox="0 0 19 18" fill="none" xmlns="http://www.w3.org/2000/svg">
<path fill-rule="evenodd" clip-rule="evenodd" d="M1.91699 9.20435C1.91699 5.12117 5.22713 1.81104 9.3103 1.81104C10.4039 1.81104 11.4407 2.04814 12.3733 2.47328C12.6246 2.58782 12.9211 2.47698 13.0357 2.22572C13.1502 1.97445 13.0394 1.6779 12.7881 1.56336C11.7279 1.08005 10.5498 0.811035 9.3103 0.811035C4.67484 0.811035 0.916992 4.56889 0.916992 9.20435C0.916992 13.8398 4.67484 17.5977 9.3103 17.5977C13.9458 17.5977 17.7036 13.8398 17.7036 9.20435C17.7036 8.83079 17.6792 8.46269 17.6318 8.10161C17.5958 7.82782 17.3447 7.63501 17.0709 7.67096C16.7971 7.70692 16.6043 7.95801 16.6403 8.23181C16.682 8.54984 16.7036 8.87445 16.7036 9.20435C16.7036 13.2875 13.3935 16.5977 9.3103 16.5977C5.22713 16.5977 1.91699 13.2875 1.91699 9.20435ZM12.2452 7.13812C12.2452 6.68855 11.8808 6.3241 11.4312 6.3241C10.9816 6.3241 10.6172 6.68855 10.6172 7.13812C10.6172 7.5877 10.9816 7.95215 11.4312 7.95215C11.8808 7.95215 12.2452 7.5877 12.2452 7.13812ZM7.19 6.32414C7.63957 6.32414 8.00403 6.68859 8.00403 7.13816C8.00403 7.58774 7.63957 7.95219 7.19 7.95219C6.74043 7.95219 6.37598 7.58774 6.37598 7.13816C6.37598 6.68859 6.74043 6.32414 7.19 6.32414ZM6.99909 10.1019C6.95408 9.82949 6.69673 9.64511 6.42428 9.69012C6.15183 9.73513 5.96745 9.99248 6.01246 10.2649C6.15491 11.1272 6.53424 11.7902 7.11466 12.2454C7.68596 12.6934 8.40717 12.9052 9.17934 12.9589L9.19666 12.9601H9.21403C10.0433 12.9601 10.7848 12.7525 11.3583 12.2822C11.9351 11.8093 12.2853 11.1171 12.4165 10.259C12.4583 9.98606 12.2708 9.73093 11.9979 9.68918C11.7249 9.64744 11.4698 9.83488 11.428 10.1078C11.3252 10.7799 11.0692 11.2261 10.7243 11.509C10.3791 11.792 9.88908 11.9572 9.23133 11.96C8.59741 11.9135 8.09525 11.7436 7.73176 11.4585C7.37409 11.178 7.10645 10.7518 6.99909 10.1019ZM15.4971 1.58346C15.4971 1.30731 15.7209 1.08346 15.9971 1.08346C16.2732 1.08346 16.4971 1.30731 16.4971 1.58346V3.41679H18.3304C18.6065 3.41679 18.8304 3.64065 18.8304 3.91679C18.8304 4.19293 18.6065 4.41679 18.3304 4.41679H16.4971V6.41679C16.4971 6.69293 16.2732 6.91679 15.9971 6.91679C15.7209 6.91679 15.4971 6.69293 15.4971 6.41679V4.41679H13.4971C13.2209 4.41679 12.9971 4.19293 12.9971 3.91679C12.9971 3.64065 13.2209 3.41679 13.4971 3.41679H15.4971V1.58346Z" fill="#181818"/>
</svg>
